<?xml version="1.0" encoding="UTF-8"?>
<svg width="24" height="24" viewBox="0 0 24 24" fill="none" xmlns="http://www.w3.org/2000/svg">
  <path d="M16 4C16 5.10457 15.1046 6 14 6C12.8954 6 12 5.10457 12 4C12 2.89543 12.8954 2 14 2C15.1046 2 16 2.89543 16 4Z" stroke="currentColor" stroke-width="1.5"/>
  <path d="M8 7C8 8.10457 7.10457 9 6 9C4.89543 9 4 8.10457 4 7C4 5.89543 4.89543 5 6 5C7.10457 5 8 5.89543 8 7Z" stroke="currentColor" stroke-width="1.5"/>
  <path d="M14 6C14 9.5 6 9.5 6 9.5" stroke="currentColor" stroke-width="1.5" stroke-linecap="round"/>
  <path d="M6 9.5C6 9.5 8 11.5 8 14C8 16.5 6 19 6 19" stroke="currentColor" stroke-width="1.5" stroke-linecap="round"/>
  <path d="M14 6C14 6 16 11.5 16 14C16 16.5 14 19 14 19" stroke="currentColor" stroke-width="1.5" stroke-linecap="round"/>
</svg>
